<?xml version="1.0" standalone="no"?>
<!DOCTYPE svg PUBLIC "-//W3C//DTD SVG 20010904//EN"
 "http://www.w3.org/TR/2001/REC-SVG-20010904/DTD/svg10.dtd">
<svg version="1.0" xmlns="http://www.w3.org/2000/svg"
 width="1024.000000pt" height="1024.000000pt" viewBox="0 0 1024.000000 1024.000000"
 preserveAspectRatio="xMidYMid meet">

<g transform="translate(0.000000,1024.000000) scale(0.100000,-0.100000)"
fill="#000000" stroke="none">
<path d="M2829 8997 c-33 -22 -39 -39 -212 -552 -126 -376 -178 -547 -182
-590 -5 -74 16 -182 51 -253 38 -78 132 -173 209 -214 l65 -33 2 -1915 c3
-2085 -1 -1938 59 -1974 25 -15 225 -16 2302 -16 l2274 0 34 23 c19 13 39 38
46 57 9 27 12 490 13 1930 l1 1895 62 35 c76 43 156 124 195 199 81 152 82
266 4 496 -28 83 -104 310 -170 507 -66 196 -125 366 -131 377 -29 54 118 51
-2329 51 l-2259 0 -34 -23z m4644 -594 c86 -252 161 -479 168 -506 60 -248
-197 -476 -452 -401 -158 47 -239 142 -260 307 -6 45 -16 88 -22 96 -20 24
-58 33 -89 20 -32 -13 -36 -23 -42 -104 -11 -144 -78 -238 -216 -303 -46 -22
-69 -27 -140 -26 -71 0 -95 5 -145 27 -81 38 -120 69 -160 130 -36 54 -65 147
-65 206 0 46 -24 71 -68 71 -47 0 -72 -24 -72 -69 0 -57 -25 -145 -53 -194
-112 -190 -384 -230 -555 -81 -61 54 -98 126 -111 219 -14 96 -43 134 -94 121
-32 -8 -48 -40 -57 -112 -22 -180 -149 -301 -334 -320 -121 -12 -255 49 -321
149 -34 52 -65 146 -65 198 0 47 -17 78 -47 86 -71 18 -103 -12 -103 -98 0
-157 -119 -295 -284 -329 -208 -42 -411 107 -433 319 -9 96 -63 143 -115 102
-22 -18 -26 -30 -30 -95 -9 -141 -91 -258 -217 -308 -78 -31 -203 -31 -283 1
-114 44 -199 158 -218 292 -8 52 -5 72 19 152 32 105 298 884 306 898 4 5 877
9 2204 9 l2198 0 156 -457z m-3203 -861 c0 -4 27 -35 61 -70 77 -79 189 -136
299 -153 68 -10 83 -9 157 11 104 28 188 78 264 157 33 35 62 63 64 63 1 0 36
-33 76 -73 122 -122 281 -181 419 -157 119 21 240 88 328 184 23 25 46 46 50
46 4 0 20 -19 37 -41 36 -49 111 -108 182 -143 192 -97 403 -56 572 110 42 41
78 74 81 74 3 0 23 -22 45 -50 67 -84 156 -138 283 -171 42 -11 89 -17 105
-13 l27 6 0 -1856 0 -1856 -707 0 c-390 0 -718 -3 -730 -6 -19 -5 -23 -2 -23
15 0 11 4 21 10 21 23 0 215 158 304 251 111 115 187 225 253 366 91 195 133
371 133 557 0 91 -2 102 -26 133 l-25 33 -129 0 -129 0 -6 48 c-39 299 -370
646 -725 760 -144 46 -218 57 -385 56 -378 -1 -630 -100 -869 -342 -137 -138
-223 -286 -266 -452 l-16 -65 -115 -5 c-63 -3 -120 -9 -127 -13 -6 -5 -19 -22
-28 -40 -14 -26 -16 -53 -11 -162 8 -200 40 -327 132 -521 110 -234 266 -415
489 -569 30 -20 57 -44 60 -51 5 -12 -111 -14 -734 -14 l-740 0 2 1853 3 1852
75 6 c77 6 124 20 201 59 57 29 134 94 156 131 10 16 22 29 28 29 6 0 33 -23
60 -51 91 -94 189 -146 314 -169 149 -27 348 53 458 185 33 40 63 58 63 37z
m1108 -1867 c34 -10 62 -23 62 -29 0 -6 -21 -20 -48 -30 -79 -32 -213 -126
-289 -203 -118 -120 -222 -292 -239 -395 l-7 -38 -138 0 -139 0 0 24 c0 42 47
177 94 268 96 189 229 348 336 402 53 27 59 27 180 23 77 -2 149 -11 188 -22z
m-673 -77 c-4 -13 -18 -34 -30 -48 -83 -90 -264 -464 -265 -547 0 -23 -2 -23
-135 -23 -155 0 -151 -4 -114 96 89 236 332 490 514 535 17 4 31 7 33 8 2 1 0
-9 -3 -21z m1040 -99 c68 -18 289 -259 262 -286 -4 -3 -39 4 -79 16 -134 39
-309 26 -422 -31 -79 -40 -176 -152 -176 -203 0 -13 -23 -15 -160 -15 l-160 0
0 24 c0 66 136 269 229 342 89 71 240 142 331 157 50 9 136 7 175 -4z m95
-414 c131 -9 226 -31 245 -58 33 -47 34 -47 -290 -47 -296 0 -305 1 -305 20 0
53 113 103 215 94 22 -2 83 -6 135 -9z m-690 -265 l1256 0 -2 -52 c-3 -101
-29 -254 -46 -275 -6 -7 -8 -13 -5 -13 3 0 -1 -17 -9 -37 -9 -20 -18 -45 -19
-56 -5 -23 -54 -130 -63 -137 -4 -3 -18 -26 -31 -52 -13 -27 -28 -48 -32 -48
-5 0 -9 -6 -9 -14 0 -8 -9 -21 -20 -29 -11 -8 -17 -16 -14 -20 3 -3 -3 -12
-15 -19 -12 -7 -21 -17 -21 -23 0 -14 -152 -165 -167 -165 -7 0 -13 -4 -13 -9
0 -17 -261 -173 -290 -173 -3 0 -15 -4 -28 -9 -13 -5 -31 -9 -41 -9 -10 0 -21
-3 -25 -7 -6 -7 -14 -9 -61 -18 -11 -2 -45 -11 -75 -20 -70 -20 -354 -30 -470
-17 -84 10 -95 12 -157 31 -18 5 -33 8 -33 6 0 -2 -15 2 -34 10 -18 8 -48 17
-66 20 -18 3 -56 17 -85 30 -29 14 -57 25 -63 25 -7 0 -12 5 -12 11 0 5 -4 7
-10 4 -5 -3 -10 -1 -10 4 0 6 -3 10 -7 9 -13 -3 -63 24 -63 34 0 4 -6 8 -14 8
-7 0 -25 11 -40 25 -15 14 -31 25 -36 25 -5 0 -14 9 -20 20 -6 11 -16 20 -23
20 -13 0 -117 100 -117 112 0 5 -16 24 -35 44 -19 19 -35 41 -35 48 0 8 -7 17
-16 20 -8 3 -12 10 -9 16 3 5 2 10 -4 10 -10 0 -42 52 -41 65 0 3 -6 13 -15
21 -8 9 -15 22 -15 30 0 8 -4 14 -9 14 -5 0 -14 15 -21 33 -6 17 -16 40 -22
51 -5 10 -11 26 -13 35 -2 9 -12 36 -21 61 -9 25 -18 53 -20 63 -2 9 -7 27
-10 40 -15 57 -17 78 -21 171 l-4 99 23 -7 c13 -3 588 -6 1278 -6z"/>
<path d="M4757 6899 c-28 -17 -47 -68 -35 -99 5 -14 70 -86 145 -161 74 -75
134 -142 132 -148 -2 -6 -64 -71 -136 -145 -120 -121 -133 -138 -133 -170 0
-42 37 -76 83 -76 26 0 51 20 165 135 74 74 137 135 140 135 3 0 70 -63 147
-140 78 -77 147 -140 154 -140 22 0 70 30 81 49 24 46 13 63 -130 202 -89 86
-140 143 -140 156 0 13 53 71 145 161 119 116 145 147 145 169 -1 43 -42 83
-86 83 -10 0 -83 -65 -164 -145 -80 -80 -149 -145 -152 -145 -3 0 -41 37 -84
83 -191 199 -199 207 -230 207 -16 0 -37 -5 -47 -11z"/>
<path d="M4750 4538 c0 -4 -7 -8 -15 -8 -33 0 -54 -95 -26 -123 16 -16 103
-17 119 0 18 18 10 106 -12 128 -15 15 -66 17 -66 3z"/>
<path d="M5411 4532 c-14 -27 -10 -115 6 -130 13 -13 36 -13 98 1 45 9 33 107
-17 128 -46 19 -77 19 -87 1z"/>
<path d="M4970 4153 c-25 -9 -63 -28 -85 -42 -22 -14 -42 -25 -45 -26 -15 -1
-83 -79 -89 -103 -10 -32 0 -64 20 -68 8 -2 26 -6 41 -10 27 -6 36 -2 88 48
15 15 31 24 34 21 3 -4 6 -2 6 4 0 26 84 47 185 47 69 -1 175 -34 175 -55 0
-5 6 -9 13 -9 7 0 22 -8 33 -17 71 -63 144 -54 144 16 0 52 -114 148 -222 187
-65 23 -241 28 -298 7z"/>
<path d="M1765 2927 c-3 -6 -4 -163 -3 -347 l3 -335 43 -3 42 -3 0 261 c0 225
2 261 15 258 12 -3 187 -262 308 -458 l38 -61 47 3 47 3 0 345 0 345 -42 3
-43 3 0 -255 c0 -212 -2 -256 -14 -256 -12 0 -188 259 -291 430 -22 36 -44 68
-50 72 -17 13 -95 9 -100 -5z"/>
<path d="M4743 2903 c-9 -3 -13 -30 -13 -83 l0 -79 -47 -3 c-46 -3 -48 -4 -48
-33 0 -29 2 -30 48 -33 l47 -3 0 -167 c0 -148 2 -171 20 -199 25 -42 70 -64
142 -71 l59 -5 -3 44 c-3 43 -3 44 -45 50 -79 10 -83 20 -83 196 l0 153 65 0
65 0 0 35 0 35 -65 0 -65 0 0 79 c0 63 -3 80 -16 85 -18 7 -43 7 -61 -1z"/>
<path d="M7746 2899 c-16 -10 -17 -19 -11 -85 l7 -73 -49 -3 c-46 -3 -48 -4
-51 -35 -3 -31 -2 -32 44 -35 l47 -3 1 -167 c1 -153 3 -169 22 -195 31 -42 77
-64 144 -70 l60 -6 0 47 0 46 -42 0 c-85 1 -98 30 -98 209 l0 141 70 0 70 0 0
35 0 35 -70 0 -70 0 0 79 c0 63 -3 80 -16 85 -22 8 -36 7 -58 -5z"/>
<path d="M2600 2730 c-155 -73 -204 -250 -108 -395 17 -25 51 -57 77 -73 39
-23 57 -27 121 -26 56 0 85 6 115 21 83 43 132 118 142 216 9 95 -54 209 -141
254 -51 26 -153 28 -206 3z m170 -81 c84 -48 112 -174 57 -258 -30 -45 -91
-80 -137 -81 -46 0 -112 42 -134 85 -27 52 -27 137 -2 188 38 77 140 108 216
66z"/>
<path d="M3312 2742 c-9 -7 -12 -64 -10 -253 l3 -244 40 0 40 0 5 165 c4 130
9 172 22 196 19 35 60 54 115 54 34 0 34 0 31 43 l-3 42 -49 -1 c-44 0 -53 -4
-81 -37 -40 -46 -55 -47 -55 -3 0 40 -26 57 -58 38z"/>
<path d="M4295 2736 c-65 -30 -109 -105 -94 -160 15 -55 69 -93 166 -116 72
-17 103 -42 103 -86 0 -30 -5 -37 -35 -50 -73 -30 -149 -6 -175 55 -7 17 -15
31 -19 31 -12 0 -71 -40 -71 -48 0 -25 56 -83 102 -106 87 -44 186 -31 249 33
62 62 62 137 1 193 -29 27 -100 58 -132 58 -34 0 -90 33 -96 57 -9 34 2 52 41
69 49 20 100 9 127 -27 22 -29 59 -38 86 -20 20 12 -8 62 -54 98 -30 23 -48
28 -103 30 -40 1 -78 -3 -96 -11z"/>
<path d="M5150 2723 c-60 -33 -94 -78 -70 -93 32 -21 62 -23 72 -5 13 22 68
45 108 45 64 0 130 -57 130 -112 0 -26 -3 -29 -22 -25 -217 52 -375 -64 -301
-220 18 -38 95 -83 143 -83 42 0 98 20 129 45 34 29 63 33 60 8 -4 -40 1 -44
39 -41 l37 3 0 170 c0 94 -3 182 -8 197 -11 40 -66 98 -112 119 -61 28 -142
25 -205 -8z m203 -261 c4 -1 13 -2 21 -2 11 0 13 -7 6 -30 -5 -16 -6 -30 -4
-30 3 0 -1 -7 -10 -15 -8 -8 -23 -26 -34 -40 -16 -20 -30 -25 -73 -27 -68 -3
-80 1 -101 32 -24 34 -22 54 5 86 32 37 103 47 190 26z"/>
<path d="M5628 2739 c-16 -9 -18 -28 -18 -165 0 -186 10 -234 60 -284 69 -69
167 -75 238 -15 38 32 50 31 54 -2 3 -25 7 -28 38 -28 l35 0 3 247 c2 236 2
247 -17 253 -11 3 -31 3 -45 -1 l-26 -6 0 -172 c0 -139 -3 -176 -16 -194 -47
-68 -166 -70 -211 -3 -15 22 -18 55 -21 198 -4 165 -5 171 -25 177 -28 7 -29
7 -49 -5z"/>
<path d="M6193 2739 c-15 -15 -19 -465 -4 -487 5 -8 23 -12 47 -10 l39 3 1
150 c2 222 19 253 149 267 26 3 30 7 33 37 2 20 -2 37 -10 42 -37 24 -120 -7
-140 -52 -19 -42 -38 -37 -38 11 0 25 -5 40 -12 40 -7 0 -22 3 -33 6 -11 3
-26 -1 -32 -7z"/>
<path d="M6667 2736 c-45 -16 -65 -33 -90 -75 l-18 -30 37 -16 c35 -15 37 -14
63 14 33 35 88 48 140 32 48 -14 78 -46 86 -94 l8 -39 -49 8 c-122 21 -208 1
-262 -61 -79 -90 -25 -217 101 -239 47 -9 136 16 162 44 25 28 43 25 47 -7 3
-25 7 -28 43 -28 l40 0 3 145 c2 81 -2 167 -8 196 -13 62 -59 120 -114 145
-49 22 -134 24 -189 5z m176 -272 c22 -4 37 -12 37 -21 0 -29 -39 -89 -70
-107 -63 -36 -151 -15 -164 40 -18 70 68 109 197 88z"/>
<path d="M7127 2737 c-16 -11 -17 -35 -15 -252 l3 -240 45 0 45 0 1 156 c0 85
4 166 7 180 3 13 20 38 37 54 24 23 39 29 78 29 59 1 92 -15 118 -57 16 -27
20 -58 24 -197 l5 -165 38 -3 37 -3 0 182 c0 166 -2 187 -21 227 -27 56 -84
93 -149 100 -59 5 -101 -10 -135 -49 -31 -38 -45 -37 -45 5 0 44 -36 61 -73
33z"/>
<path d="M8162 2729 c-89 -45 -112 -134 -51 -204 25 -28 48 -40 118 -61 97
-30 121 -46 121 -83 0 -34 -10 -48 -43 -60 -66 -25 -135 -3 -163 52 -9 17 -18
33 -19 35 -6 7 -75 -33 -75 -43 0 -24 53 -86 91 -106 189 -96 405 89 261 224
-27 25 -50 34 -155 63 -57 15 -77 34 -77 72 0 34 32 52 94 52 54 0 58 -2 77
-34 11 -19 26 -33 32 -31 7 2 25 6 40 9 l28 7 -23 40 c-47 84 -162 114 -256
68z"/>
<path d="M3734 2715 c-47 -28 -86 -80 -109 -144 -76 -218 142 -407 360 -311
41 18 95 62 95 78 0 5 -19 15 -41 22 -37 13 -43 12 -54 -3 -14 -20 -86 -47
-123 -47 -70 0 -152 71 -152 132 l0 28 188 2 187 3 3 33 c7 70 -47 171 -113
212 -50 31 -185 29 -241 -5z m198 -69 c5 -9 13 -14 19 -11 5 4 9 -1 9 -9 0 -8
6 -19 14 -23 8 -4 18 -20 21 -35 l7 -28 -141 0 -141 0 0 25 c0 14 5 25 10 25
6 0 10 6 10 13 0 8 9 22 20 32 11 10 20 15 20 11 0 -4 7 -1 15 8 21 21 124 15
137 -8z"/>
<path d="M4745 1898 c-40 -22 -47 -64 -17 -91 24 -22 55 -21 75 1 22 24 22 55
0 74 -29 25 -37 27 -58 16z"/>
<path d="M4972 1902 c-9 -7 -12 -86 -10 -363 l3 -354 40 0 40 0 0 360 0 360
-30 3 c-16 1 -36 -2 -43 -6z"/>
<path d="M5745 1898 c-3 -7 -4 -171 -3 -363 l3 -350 40 0 c39 0 40 1 43 38 3
37 24 51 35 22 4 -8 24 -26 46 -41 33 -22 52 -26 104 -26 139 0 236 103 237
252 0 191 -178 317 -331 234 -27 -15 -51 -35 -54 -45 -4 -11 -13 -19 -20 -19
-12 0 -15 29 -17 153 l-3 152 -38 3 c-24 2 -39 -1 -42 -10z m324 -311 c19 -7
39 -21 45 -32 6 -10 17 -25 24 -33 6 -7 12 -23 13 -35 0 -12 3 -33 5 -47 6
-31 -17 -111 -33 -117 -7 -3 -11 -9 -8 -14 8 -13 -35 -37 -87 -48 -42 -10 -53
-8 -95 12 -37 17 -53 32 -69 67 -36 74 -20 188 31 230 8 7 15 9 15 6 0 -4 10
0 22 8 26 19 89 20 137 3z"/>
<path d="M6375 1898 c-3 -7 -4 -171 -3 -363 l3 -350 43 -3 42 -3 -2 363 -3
363 -38 3 c-24 2 -39 -1 -42 -10z"/>
<path d="M3230 1677 c-34 -11 -110 -78 -110 -97 0 -5 17 -17 37 -25 36 -15 37
-15 57 9 28 32 57 46 101 46 68 0 122 -43 132 -104 l6 -37 -39 6 c-21 3 -54 8
-72 11 -59 9 -140 -14 -183 -53 -95 -86 -62 -210 67 -249 59 -18 103 -11 171
27 l51 29 7 -30 c6 -29 10 -31 43 -28 l37 3 3 159 c2 123 -1 170 -13 206 -18
53 -64 102 -117 124 -42 18 -126 19 -178 3z m177 -265 c39 -2 42 -4 41 -32 -1
-16 -5 -30 -10 -30 -5 0 -7 -4 -3 -9 3 -6 -11 -26 -31 -46 -31 -31 -44 -37
-93 -42 -46 -4 -61 -1 -82 15 -47 37 -29 130 27 138 9 1 18 5 21 7 2 3 23 4
46 3 23 -1 61 -3 84 -4z"/>
<path d="M3622 1683 c-13 -3 -21 -10 -19 -16 11 -26 170 -434 179 -459 9 -26
14 -28 63 -28 30 0 57 5 61 12 4 6 46 117 94 247 l88 236 -25 9 c-58 20 -72
-6 -198 -371 -10 -30 -32 -8 -54 54 -29 80 -118 303 -123 307 -8 8 -45 13 -66
9z"/>
<path d="M4255 1671 c-39 -17 -95 -72 -95 -92 0 -6 15 -16 34 -24 34 -14 36
-14 64 14 76 76 208 37 228 -67 l7 -34 -49 9 c-117 20 -200 3 -256 -51 -88
-85 -41 -219 84 -245 62 -13 142 5 173 39 26 28 42 25 49 -11 5 -28 8 -30 43
-27 l38 3 3 145 c4 169 -7 232 -48 282 -61 73 -185 100 -275 59z m208 -264
c22 0 27 -4 27 -24 0 -48 -53 -110 -106 -125 -51 -14 -109 -1 -128 27 -18 27
-21 72 -6 95 14 22 80 38 135 32 28 -3 62 -5 78 -5z"/>
<path d="M4732 1682 c-9 -7 -12 -64 -10 -253 l3 -244 40 0 40 0 3 244 c3 258
2 261 -43 261 -11 0 -26 -4 -33 -8z"/>
<path d="M5296 1674 c-46 -17 -73 -38 -92 -75 -13 -26 -12 -27 17 -40 20 -8
36 -9 44 -3 49 36 67 46 98 51 47 7 79 -2 116 -33 27 -23 52 -86 39 -100 -3
-2 -37 0 -77 6 -127 18 -214 -19 -253 -107 -23 -52 -18 -90 19 -134 49 -58
121 -78 199 -54 28 8 63 26 78 40 36 34 46 32 46 -10 0 -34 1 -35 40 -35 l40
0 0 163 c0 89 -5 180 -11 202 -15 52 -82 119 -134 134 -53 15 -121 13 -169 -5z
m181 -272 l41 -7 -13 -39 c-19 -53 -53 -86 -104 -97 -106 -24 -174 86 -84 135
30 16 90 19 160 8z"/>
<path d="M6752 1677 c-47 -15 -113 -77 -141 -132 -18 -36 -24 -64 -24 -114 1
-87 24 -141 84 -195 61 -55 128 -73 213 -57 69 13 102 30 144 74 l33 34 -46
12 c-41 10 -48 9 -67 -9 -24 -22 -77 -40 -118 -40 -50 0 -113 42 -137 90 -12
25 -22 51 -23 58 0 9 46 12 195 12 164 0 197 2 201 15 10 25 -33 148 -65 186
-57 69 -158 95 -249 66z m150 -99 c34 -24 58 -57 58 -80 0 -16 -12 -18 -135
-18 -74 0 -135 2 -135 5 0 15 31 62 53 83 47 44 106 48 159 10z"/>
</g>
</svg>
